# xmcd
#
# Track frame offsets:
#	150
#	19605
#	36900
#	50525
#	65255
#	78365
#	91410
#	107900
#	117860
#	128525
#	141100
#	150470
#	160940
#	171515
#	183640
#	196880
#	205350
#	217180
#	227715
#	239790
#	252525
#	262770
#	276485
#	287945
#	298055
#
# Disc length: 4176 seconds
#
# Revision: 0
# Processed by: cddbd v1.5.1PL0 Copyright (c) Steve Scherf et al.
# Submitted via: audiograbber 1.83.01
#
DISCID=81104e19
DTITLE=Bill Anderson - Where Have All Our Hero's Gone
DYEAR=1900
DGENRE=Country
TTITLE0=Where Have All The Hero's Gone
TTITLE1=For The Good Times
TTITLE2=Loving A Memory
TTITLE3=Me And Bobby McGee
TTITLE4=And Then Came The Bad Years
TTITLE5=All I Have To Offer You Is Me
TTITLE6=Poison Red Berries
TTITLE7=It Can't Go Anywhere But Wrong
TTITLE8=I'll Bring More Flowers
TTITLE9=Melinda
TTITLE10=Friends 
TTITLE11=Always Remember
TTITLE12=The Kind Of Neddin' I Need
TTITLE13=When I Loved Her
TTITLE14=Stranger In My Place
TTITLE15=One Too Many Mornings
TTITLE16=You're Still The  One I'll Ever Love
TTITLE17=I'm Alright
TTITLE18=Come Sundown
TTITLE19=Feel Free To Go 
TTITLE20=Help Me Make It Through The Night
TTITLE21=Lonesome Is The Mother Of Soul
TTITLE22=Happy State Of Mind
TTITLE23=Just For You
TTITLE24=The Unicorn
EXTD=
EXTT0=
EXTT1=
EXTT2=
EXTT3=
EXTT4=
EXTT5=
EXTT6=
EXTT7=
EXTT8=
EXTT9=
EXTT10=
EXTT11=
EXTT12=
EXTT13=
EXTT14=
EXTT15=
EXTT16=
EXTT17=
EXTT18=
EXTT19=
EXTT20=
EXTT21=
EXTT22=
EXTT23=
EXTT24=
PLAYORDER=
